# xmcd CD database file
#
# Track frame offsets:
#	150
#	11723
#	28605
#	40790
#	49063
#	56785
#	73065
#	81023
#	96113
#	107725
#	124153
#	138040
#	149193
#	160083
#	170645
#	190608
#	201570
#	218578
#	236690
#	242425
#
# Disc length: 3256 seconds
#
# Revision: 0
# Processed by: cddbd v1.5.1PL0 Copyright (c) Steve Scherf et al.
# Submitted via: CDex 1.51
#
DISCID=1e0cb614
DTITLE=Spectrum - SPECTRUM BRASSBAND CLUB - SPECTRUM 5
DYEAR=1981
DGENRE=Fusion
TTITLE0=ブラスバンド・クラブのテーマ
TTITLE1=I Love P.T.A.
TTITLE2=たじろぎの英語教師
TTITLE3=理科室のメロディ
TTITLE4=小さく前へならえ
TTITLE5=青春とはなんだ!
TTITLE6=エレガント・レディ(うたたねの境地)
TTITLE7=ファンキー身体検査
TTITLE8=恋の給食タイム
TTITLE9=先生のひとり言
TTITLE10=ガンバレ応援団
TTITLE11=正調もんぎり節(男女交際編)
TTITLE12=おちゃめな校長先生
TTITLE13=先生がママにキスをした
TTITLE14=遠足ロックン・ロール
TTITLE15=もういくつ寝ると18歳未満(伊勢崎町ブルース)
TTITLE16=コンクールが近いよ
TTITLE17=マイ・フレンズ
TTITLE18=イン・ザ・スペース
TTITLE19=1920,アミューズ・カンパニー
EXTD=YEAR: 1981
EXTT0=
EXTT1=
EXTT2=
EXTT3=
EXTT4=
EXTT5=
EXTT6=
EXTT7=
EXTT8=
EXTT9=
EXTT10=
EXTT11=
EXTT12=
EXTT13=
EXTT14=
EXTT15=
EXTT16=
EXTT17=
EXTT18=
EXTT19=
PLAYORDER=
